# xmcd
# 
# Track frame offsets:
#     150
#     24955
#     51756
#     64758
# 
# Disc length: 1290
# 
# Revision: 0
# Processed by: cddbd v1.5.2PL0 Copyright (c) Steve Scherf et al.
# Submitted via: fre:ac v1.0.17
# 
DISCID=2a050804
DTITLE=Various Artist - サガオケ! The Orchestral SaGa -Legend of Music-
DYEAR=0
DGENRE=Game
TTITLE0=伊藤賢治 - 森に抱かれて－クローディアメドレー from ロマンシング サ・ガ－ミンストレルソング
TTITLE1=伊藤賢治 - 妖魔の夢－アセルスメドレー from サガ フロンティア
TTITLE2=伊藤賢治 - 不沈艦発信！－バンガードメドレー from ロマンシング サ・ガ３
TTITLE3=伊藤賢治 - 最強の栄光－バトル２～七英雄～四魔貴族バトルメドレー  from ロマンシング サ・ガ１～３
EXTD=Disc2
EXTT0=
EXTT1=
EXTT2=
EXTT3=
PLAYORDER=
